<svg id="Layer_1" data-name="Layer 1" xmlns="http://www.w3.org/2000/svg" viewBox="0 0 781.03 163.17"><defs><style>.cls-1{fill:#292f36;}</style></defs><title>elderly-logo</title><g id="Elderly-Text"><path class="cls-1" d="M413.59,596.73q9.87,12.44,8.88,33.94H355.12q1.53,12.09,9.68,19.21T385,657a36.82,36.82,0,0,0,14.16-2.68,34,34,0,0,0,11.4-7.65l6.73,7.19A40.56,40.56,0,0,1,402.84,664a47.68,47.68,0,0,1-18.71,3.6,43,43,0,0,1-21.43-5.24,36.63,36.63,0,0,1-14.5-14.73A44.72,44.72,0,0,1,343,625.93a44,44,0,0,1,5.24-21.7,37.08,37.08,0,0,1,14.66-14.69,43.14,43.14,0,0,1,21.35-5.24Q403.72,584.3,413.59,596.73Zm-10.14,5q-7.46-7-19.48-7-11.79,0-19.63,7t-9.22,18.83h56.4Q410.91,608.71,403.45,601.75Z" transform="translate(-101.7 -535.09)"/><path class="cls-1" d="M444.28,667.18V550.85h12.25V667.18H444.28Z" transform="translate(-101.7 -535.09)"/><path class="cls-1" d="M562.91,667.18H550.66V649.5A33.21,33.21,0,0,1,537.77,663a37.84,37.84,0,0,1-19.25,4.75,40.14,40.14,0,0,1-20.7-5.32,36.51,36.51,0,0,1-14.08-14.89,46.29,46.29,0,0,1-5-21.81,45.61,45.61,0,0,1,5-21.7,36.78,36.78,0,0,1,14-14.77A39.8,39.8,0,0,1,518.36,584a38.76,38.76,0,0,1,19.36,4.75,31.71,31.71,0,0,1,12.93,13.7V550.85h12.25V667.18Zm-26.63-14.27a27.88,27.88,0,0,0,10.56-11,35,35,0,0,0,0-31.84,28.16,28.16,0,0,0-10.56-11,29.67,29.67,0,0,0-15.38-4,30.08,30.08,0,0,0-15.46,4,27.92,27.92,0,0,0-10.64,11.06,33,33,0,0,0-3.83,16,32.62,32.62,0,0,0,3.83,15.84,27.7,27.7,0,0,0,10.64,11,30.29,30.29,0,0,0,15.46,3.94A29.88,29.88,0,0,0,536.27,652.91Z" transform="translate(-101.7 -535.09)"/><path class="cls-1" d="M655.66,596.73q9.87,12.44,8.88,33.94H597.19q1.53,12.09,9.68,19.21T627.12,657a36.82,36.82,0,0,0,14.16-2.68,34,34,0,0,0,11.4-7.65l6.73,7.19A40.56,40.56,0,0,1,644.91,664a47.68,47.68,0,0,1-18.71,3.6,43,43,0,0,1-21.43-5.24,36.63,36.63,0,0,1-14.5-14.73,44.72,44.72,0,0,1-5.17-21.74,44,44,0,0,1,5.24-21.7A37.08,37.08,0,0,1,605,589.54a43.14,43.14,0,0,1,21.35-5.24Q645.79,584.3,655.66,596.73Zm-10.14,5q-7.46-7-19.48-7-11.79,0-19.63,7t-9.22,18.83h56.4Q653,608.71,645.52,601.75Z" transform="translate(-101.7 -535.09)"/><path class="cls-1" d="M709.39,589.08q7.5-4.78,18-4.94v12.32q-12.86-.15-20.66,7.16t-9,19.71v43.85H685.59V584.6h12.17v18.29A31.34,31.34,0,0,1,709.39,589.08Z" transform="translate(-101.7 -535.09)"/><path class="cls-1" d="M749.91,654.48a8.28,8.28,0,0,1,2.18,5.82,8.14,8.14,0,0,1-2.18,5.78,7,7,0,0,1-5.32,2.33,7.3,7.3,0,0,1-5.51-2.33,8.06,8.06,0,0,1-2.22-5.78,8.19,8.19,0,0,1,2.22-5.82,7.24,7.24,0,0,1,5.51-2.37A7,7,0,0,1,749.91,654.48Z" transform="translate(-101.7 -535.09)"/><path class="cls-1" d="M775.74,667.18V550.85H788V667.18H775.74Z" transform="translate(-101.7 -535.09)"/><path class="cls-1" d="M834.63,693.39a23,23,0,0,1-14.58,4.86,26.67,26.67,0,0,1-17.37-6.12L807.81,682a19.8,19.8,0,0,0,11.63,3.9,13.85,13.85,0,0,0,8.69-3,21.33,21.33,0,0,0,6.31-8.65l3.52-7.65-34.21-82h12.86L844,652.79l26.17-68.19h12.55L844.85,679Q840.87,688.53,834.63,693.39Z" transform="translate(-101.7 -535.09)"/></g><g id="Faces-Mark"><path class="cls-1" d="M164.54,624.54a10.09,10.09,0,0,1-9.59-7l-0.25-.77h-6.59l-0.25.77a10.13,10.13,0,1,1,0-6.22l0.25,0.77h6.59l0.25-.77A10.11,10.11,0,1,1,164.54,624.54Zm0-15.58a5.45,5.45,0,1,0,5.45,5.45A5.46,5.46,0,0,0,164.54,609Zm-26.26,0a5.45,5.45,0,1,0,5.4,6v-0.14l0-.14a2.27,2.27,0,0,1,0-.29,1.25,1.25,0,0,1,0-.18l0-.26v-0.13A5.43,5.43,0,0,0,138.28,609Z" transform="translate(-101.7 -535.09)"/><path class="cls-1" d="M152.07,651.22a16.21,16.21,0,0,1-16.14-14.44A2.34,2.34,0,0,1,138,634.2l0.26,0a2.36,2.36,0,0,1,2.32,2.08,11.56,11.56,0,0,0,23,0,2.3,2.3,0,0,1,2.3-2.08l0.28,0a2.34,2.34,0,0,1,2.07,2.58A16.21,16.21,0,0,1,152.07,651.22Z" transform="translate(-101.7 -535.09)"/><path class="cls-1" d="M274.07,624.54a10.09,10.09,0,0,1-9.59-7l-0.25-.77h-6.59l-0.25.77a10.13,10.13,0,1,1,0-6.22l0.25,0.77h6.59l0.25-.77A10.11,10.11,0,1,1,274.07,624.54Zm0-15.58a5.45,5.45,0,1,0,5.45,5.45A5.46,5.46,0,0,0,274.07,609Zm-26.26,0a5.45,5.45,0,1,0,5.45,5.45A5.46,5.46,0,0,0,247.8,609Z" transform="translate(-101.7 -535.09)"/><path class="cls-1" d="M261.6,651.22a16.21,16.21,0,0,1-16.14-14.44,2.34,2.34,0,0,1,2.07-2.58l0.27,0a2.36,2.36,0,0,1,2.32,2.08,11.56,11.56,0,0,0,23,0,2.33,2.33,0,0,1,2.3-2.08l0.28,0a2.34,2.34,0,0,1,2.07,2.58A16.21,16.21,0,0,1,261.6,651.22Z" transform="translate(-101.7 -535.09)"/><path class="cls-1" d="M151,667.28h-0.05c-21.42-.43-32.9-10.81-34.08-30.85l-0.06-1.08-1.08,0-0.28,0a9.63,9.63,0,0,1-3.11-.51,12.52,12.52,0,0,1-8.15-13,10,10,0,0,1,.44-1.92l0.19-.56-0.36-.47a2.29,2.29,0,0,1-.38-0.7,51.14,51.14,0,0,1-2.38-15.41c0-27.51,21.74-49.9,48.46-49.9a47.44,47.44,0,0,1,34.24,14.62,50.31,50.31,0,0,1,14.22,35.28,51.22,51.22,0,0,1-2.09,14.35l-0.14.47,0.26,0.42c2,3.35,1.82,7.94-.53,11.69a11.47,11.47,0,0,1-9.44,5.6l-0.23,0-1.08,0-0.06,1.08c-1.18,20-12.66,30.43-34.1,30.86H151Zm-31.85-37.65a2.34,2.34,0,0,1,2.29,2.37c-0.26,20.18,9.43,30.19,29.62,30.6,20.23-.41,29.92-10.42,29.66-30.6a2.34,2.34,0,0,1,2.31-2.37,2.35,2.35,0,0,1,1.06.25l0.06,0,0.06,0a2.33,2.33,0,0,1,.47.22,3.78,3.78,0,0,0,2,.57,6.85,6.85,0,0,0,5.43-3.43c1.88-3,1.59-6.56-.65-8a3.77,3.77,0,0,0-2-.55,6.31,6.31,0,0,0-4.4,2.1,2.31,2.31,0,0,1-3.71-2.67l0.1-.19,0-.21c2.19-22.13-.91-38.13-9.2-47.56-6.52-7.41-15.11-9.2-21.18-9.4-6.14.2-14.74,2-21.25,9.4-8.29,9.43-11.39,25.43-9.2,47.56l0,0.21,0.1,0.19a2.3,2.3,0,0,1-.41,2.73,2.34,2.34,0,0,1-3.31-.06,6.41,6.41,0,0,0-4.41-2.1,3.71,3.71,0,0,0-2,.56,4.27,4.27,0,0,0-1.83,3.16,7.85,7.85,0,0,0,5,8,5.16,5.16,0,0,0,1.62.28,3.74,3.74,0,0,0,2-.56,2.34,2.34,0,0,1,.48-0.23l0.06,0,0.06,0a2.31,2.31,0,0,1,1-.25h0Zm4.55-62.72a45.4,45.4,0,0,0-17.31,35.94,46.42,46.42,0,0,0,1.4,11.2l0.32,1.28,1.21-.52a8.59,8.59,0,0,1,3.41-.7,9,9,0,0,1,1.57.14l1.4,0.24-0.09-1.42c-1.27-19.88,2-34.88,9.68-44.59Zm65.71,47.2a9.13,9.13,0,0,1,2,.21l1.08,0.24,0.25-1.07a46.38,46.38,0,0,0,1.24-10.64,45.74,45.74,0,0,0-12.36-31.42l-1.78,1.33c5.59,9.61,7.87,23.18,6.77,40.31l-0.09,1.42,1.4-.24A8.89,8.89,0,0,1,189.4,614.12Z" transform="translate(-101.7 -535.09)"/><path class="cls-1" d="M260.53,667.28h-0.05c-21.42-.43-32.9-10.81-34.08-30.85l-0.06-1.08-1.08,0-0.28,0a9.62,9.62,0,0,1-3.11-.51,12.52,12.52,0,0,1-8.15-13,10,10,0,0,1,.44-1.92l0.19-.56L214,619a2.26,2.26,0,0,1-.38-0.7,51.13,51.13,0,0,1-2.38-15.41,50.21,50.21,0,0,1,28.25-45.33l0.86-.41-0.27-.92a14.64,14.64,0,0,1-.6-4.07c0-9.39,8.94-17,19.92-17s19.92,7.64,19.92,17a14.67,14.67,0,0,1-.53,3.86l-0.25.91,0.86,0.4a50.1,50.1,0,0,1,28.74,45.56A51.14,51.14,0,0,1,306,617.21l-0.14.47,0.26,0.42c2,3.35,1.83,7.94-.53,11.69a11.47,11.47,0,0,1-9.44,5.6l-0.23,0-1.08,0-0.06,1.08c-1.18,20-12.66,30.43-34.1,30.86h-0.18Zm-31.85-37.65A2.34,2.34,0,0,1,231,632c-0.26,20.18,9.43,30.19,29.62,30.6,20.23-.41,29.92-10.42,29.66-30.6a2.34,2.34,0,0,1,2.31-2.37,2.37,2.37,0,0,1,1.06.25l0.06,0,0.06,0a2.36,2.36,0,0,1,.48.22,3.77,3.77,0,0,0,2,.57,6.86,6.86,0,0,0,5.43-3.43c1.88-3,1.58-6.56-.65-8a3.77,3.77,0,0,0-2-.55,6.31,6.31,0,0,0-4.4,2.1,2.31,2.31,0,0,1-1.68.72,2.34,2.34,0,0,1-1.63-.65,2.31,2.31,0,0,1-.4-2.75L291,618l0-.18c1.75-11.37.07-20.19-5-26.21-6.51-7.75-17.41-9.57-25.4-9.73-8,.16-18.93,2-25.44,9.73-5.07,6-6.75,14.84-5,26.21l0,0.18,0.09,0.17a2.3,2.3,0,0,1-.4,2.75,2.34,2.34,0,0,1-3.31-.06,6.41,6.41,0,0,0-4.41-2.1,3.71,3.71,0,0,0-2,.56,4.27,4.27,0,0,0-1.83,3.16,7.85,7.85,0,0,0,5,8,5.16,5.16,0,0,0,1.62.28,3.74,3.74,0,0,0,2-.56,2.38,2.38,0,0,1,.48-0.23l0.06,0,0.06,0a2.3,2.3,0,0,1,1-.25h0Zm31-71.95c-0.88,0-1.76,0-2.63.08l-0.51,0c-0.3,0-.6,0-0.9.05-1.17.11-2.31,0.31-3.18,0.46l-0.29,0-0.42.07c-1.1.21-2.22,0.48-3.44,0.82l-0.33.09c-1.14.33-2.31,0.72-3.48,1.17-17.09,6.57-28.58,23.59-28.58,42.35a46.42,46.42,0,0,0,1.4,11.2l0.32,1.28,1.21-.52a8.5,8.5,0,0,1,3.38-.69,9.22,9.22,0,0,1,1.46.12l1.39,0.22-0.09-1.4c-0.66-10.2,1.57-18.42,6.63-24.43,7.65-9.1,20-11.22,28.93-11.4h0.17c8.95,0.17,21.25,2.29,28.91,11.4,5.06,6,7.29,14.23,6.63,24.43l-0.09,1.4,1.39-.23a8.94,8.94,0,0,1,3.36.09l1.08,0.24,0.25-1.07a46.39,46.39,0,0,0,1.24-10.64c0-19-11.65-36.05-29-42.51-1.1-.41-2.26-0.79-3.44-1.12l-0.47-.13c-1.06-.28-2.15-0.53-3.22-0.73l-0.74-.12-0.31,0c-0.83-.13-1.81-0.28-2.8-0.37-0.44,0-.89-0.06-1.33-0.08l-0.48,0Q260.67,557.69,259.65,557.69Zm-0.26-17.92c-8.4,0-15.24,5.54-15.24,12.36a10,10,0,0,0,.23,2.09l0.26,1.19,1.17-.36a47,47,0,0,1,10.06-1.93l0.24,0c1.35-.1,2.49-0.15,3.58-0.15,0.93,0,1.92,0,3.12.11A47.23,47.23,0,0,1,273,554.9l1.18,0.35,0.24-1.21a10,10,0,0,0,.19-1.92C274.64,545.31,267.8,539.76,259.4,539.76Z" transform="translate(-101.7 -535.09)"/></g></svg>